<svg width="20" height="20" viewBox="0 0 20 20" fill="none" xmlns="http://www.w3.org/2000/svg">
<path d="M16.6673 8.33341C16.6673 12.4942 12.0515 16.8276 10.5015 18.1659C10.3571 18.2745 10.1813 18.3332 10.0007 18.3332C9.81999 18.3332 9.64421 18.2745 9.49982 18.1659C7.94982 16.8276 3.33398 12.4942 3.33398 8.33341C3.33398 6.5653 4.03636 4.86961 5.28661 3.61937C6.53685 2.36913 8.23254 1.66675 10.0007 1.66675C11.7688 1.66675 13.4645 2.36913 14.7147 3.61937C15.9649 4.86961 16.6673 6.5653 16.6673 8.33341Z" stroke="#C5A059" stroke-width="1.66667" stroke-linecap="round" stroke-linejoin="round"/>
<path d="M10 10.8333C11.3807 10.8333 12.5 9.71396 12.5 8.33325C12.5 6.95254 11.3807 5.83325 10 5.83325C8.61929 5.83325 7.5 6.95254 7.5 8.33325C7.5 9.71396 8.61929 10.8333 10 10.8333Z" stroke="#C5A059" stroke-width="1.66667" stroke-linecap="round" stroke-linejoin="round"/>
</svg>
