<svg preserveAspectRatio="none" width="100%" height="100%" overflow="visible" style="display: block;" viewBox="0 0 54.0001 32" fill="none" xmlns="http://www.w3.org/2000/svg">
<g id="Group">
<path id="Vector" d="M52.6004 30.4829C52.8781 30.4829 53.711 30.7951 53.9289 30.9182C54.1467 31.0414 53.8135 31.7581 53.6085 32L2.87905 31.9428C2.74236 30.5884 3.77182 30.219 5.27542 30.6236L5.31813 18.1701L3.37883 19.1727L0 14.5027L18.7139 0L37.432 14.4059L38.8971 11.4157C39.2303 8.44304 40.9902 5.82218 43.7796 5.22413C46.7825 4.57771 49.6103 6.24433 50.7508 9.30493C52.4893 10.4087 53.4419 12.0621 53.8691 13.9442C54.0997 15.9274 52.9806 17.5545 52.2117 19.4234C51.1182 22.0838 50.1656 24.8498 46.7099 25.2588L46.744 30.5005L52.6004 30.4829ZM18.8505 5.70345L33.579 17.1411L35.3346 14.7138L18.7181 1.95685L2.09308 14.7753C2.6911 15.5932 3.29767 16.31 3.99394 17.0268L18.8505 5.70345ZM46.6159 14.3971L46.8551 16.4419L47.9657 15.5229C48.1793 15.347 48.7773 15.6988 49.3113 16.1077L46.791 18.8737L46.727 23.5921C49.2856 23.0645 50.5586 20.9625 50.4133 18.5747C52.0579 17.3434 52.579 15.8131 52.3527 13.676C52.216 12.4139 50.4603 11.2662 49.6701 10.1976C48.2306 7.8362 46.8167 6.13 44.2793 6.6401C41.6139 7.17658 40.9603 9.30054 40.3623 11.8774C39.8924 13.0823 38.4273 14.5906 38.7348 16.1605C39.021 17.6029 40.1359 18.7462 41.2593 20.0434C42.3828 21.3407 42.8697 24.0187 45.6163 23.2272L43.4635 20.7382C43.2243 20.4568 43.4549 19.4498 43.8009 19.5421L45.1764 19.9159V14.5423C45.1764 14.2872 45.9495 13.5484 46.1076 13.7463L46.6159 14.3927V14.3971ZM30.6145 30.4917L30.5718 16.7102L18.7267 7.59874L6.82601 16.7805L6.87727 30.4873H30.6102L30.6145 30.4917ZM45.1251 30.4741V25.2764C42.5323 24.7003 40.9005 23.126 40.1017 20.7514C38.1838 19.4102 37.3337 17.6161 37.1842 15.0919L34.429 18.7506C34.0873 19.2079 32.84 18.645 32.2035 18.2097L32.1822 30.5093L45.1208 30.4697L45.1251 30.4741Z" fill="var(--fill-0, #C5A059)"/>
<path id="Vector_2" d="M27 25.931L20 26L20.0373 19.8664C20.0466 18.5129 21.553 17.2974 22.8541 17.0517C24.1552 16.806 26.5103 17.4353 26.7062 18.944C27.0093 21.2543 26.9674 23.0259 26.9953 25.9267L27 25.931ZM25.3631 24.4871L25.2139 19.5216C25.1952 18.8362 23.3484 18.3319 22.7702 18.6207C22.2758 18.8707 21.6276 19.8233 21.6276 20.3836L21.6183 24.5216L25.3631 24.4871Z" fill="var(--fill-0, #C5A059)"/>
<path id="Vector_3" d="M16.98 26L11.0922 25.9784L11.0005 20.3669C10.9686 18.3943 12.3798 16.9957 14.0222 17C15.6645 17.0043 17.0079 18.4029 17 20.3755L16.98 25.9957V26ZM15.7044 24.5151L15.5489 19.7842C15.529 19.154 14.3012 18.2432 13.7631 18.4158C13.2887 18.5669 12.4197 19.5468 12.4197 20.1295L12.4037 24.5496L15.7044 24.5151Z" fill="var(--fill-0, #C5A059)"/>
</g>
</svg>
