<svg width="315" height="50" viewBox="0 0 315 50" fill="none" xmlns="http://www.w3.org/2000/svg">
<rect width="315" height="50" fill="#F5F5F5"/>
<g id="Jugogradnja Website Redesign Home">
<rect width="1919" height="4950" transform="translate(-224 -4509)" fill="white"/>
<g id="Body">
<rect width="1919" height="973" transform="translate(-224 -4509)" fill="#F9F9F9"/>
<g id="TQ">
<rect width="1919" height="4950.25" transform="translate(-224 -4509)" fill="white"/>
<g id="Footer">
<rect width="1919" height="501" transform="translate(-224 -59.75)" fill="#253D86"/>
<g id="Container">
<g id="Container_2">
<g id="Jugogradnja Beli 1" clip-path="url(#clip0_683_1322)">
<g id="Layer 1">
<g id="Group">
<g id="Group_2">
<path id="Vector" d="M289.167 29.0684C289.108 32.5891 287.17 35.5181 283.93 36.7607C282.865 37.1232 281.756 37.4338 280.587 37.4338H270.04V27.2488H263.642L263.627 37.4412L256.045 37.4264V13.6318H263.627V20.4218H270.032L270.047 13.6318H277.621L277.628 20.4218C279.33 20.4292 280.883 20.3627 282.451 20.6807C286.541 21.5091 289.234 24.8598 289.167 29.0758V29.0684ZM279.729 30.5551C280.705 30.4663 281.23 29.5935 281.171 28.7947C281.112 28.0181 280.446 27.2932 279.544 27.271L277.628 27.2266V30.6068C278.353 30.6068 279.012 30.6068 279.729 30.5477V30.5551Z" fill="white"/>
<path id="Vector_2" d="M246.193 34.0832H235.853L235.845 37.5078H228.234V30.2518L230.379 30.2296L233.782 13.6318H251.193V30.2148L253.782 30.2518V37.5004H246.215L246.193 34.0758V34.0832ZM243.612 27.1379V20.8656L239.455 20.8582L238.323 27.1453H243.604L243.612 27.1379Z" fill="white"/>
<path id="Vector_3" d="M155.401 15.6807C159.839 18.913 161.473 24.5565 159.691 29.6675C157.982 34.5492 153.241 37.8185 147.916 37.8259C142.531 37.8259 137.738 34.5049 136.059 29.5122C134.306 24.3125 136.126 18.5875 140.697 15.4662C145.098 12.4632 151.022 12.4928 155.401 15.6807ZM147.99 30.5921C150.845 30.5329 152.842 28.0477 152.797 25.4367C152.746 22.811 150.645 20.4811 147.901 20.4811C145.112 20.4811 142.99 22.8997 143.012 25.5699C143.034 28.203 145.127 30.6439 147.99 30.5847V30.5921Z" fill="white"/>
<path id="Vector_4" d="M217.095 33.3066H210.705L209.551 37.4412L201.4 37.4264L209.336 13.6318H218.449L226.393 37.419L218.234 37.4412L217.103 33.3066H217.095ZM215.357 27.0713L213.9 21.7014L212.421 27.1305C213.545 27.1453 214.41 27.1601 215.357 27.0713Z" fill="white"/>
<path id="Vector_5" d="M305.21 33.3136L298.812 33.2914L297.651 37.4408L289.492 37.426L297.444 13.624H306.549L314.5 37.4186L306.349 37.4482L305.21 33.3136ZM303.479 27.1966L302 21.6862L300.521 27.1892H303.479V27.1966Z" fill="white"/>
<path id="Vector_6" d="M202.11 25.3031C200.919 29.031 197.45 30.9541 193.648 31.0132H190.275L190.268 37.4334H182.687V13.624H193.493C195.15 13.6314 196.666 14.016 198.123 14.6965C202.066 16.6714 203.382 21.3238 202.11 25.3031ZM193.034 24.1419C194.188 24.0605 194.676 23.0102 194.58 22.0782C194.484 21.1241 193.693 20.4658 192.642 20.4658H190.275V24.1863C191.2 24.1863 192.08 24.2084 193.034 24.1419Z" fill="white"/>
<path id="Vector_7" d="M107.686 32.1157C106.258 35.1631 104.062 37.4116 100.593 37.7519C97.8264 38.0256 95.1636 37.4264 92.8337 35.8732L92.8633 28.9278L96.2953 30.4589C97.8633 30.777 99.4388 30.6734 100.607 29.5122L92.8485 13.6466L101.014 13.6318L104.602 22.0639L108.189 13.6392H116.355L107.686 32.1305V32.1157Z" fill="white"/>
<path id="Vector_8" d="M170.985 20.8582L170.978 37.4412L163.397 37.4338V13.6318H180.453V20.8508L170.985 20.8582Z" fill="white"/>
<path id="Vector_9" d="M125.238 20.8582L125.23 37.4338L117.649 37.4412V13.6318H134.676L134.668 20.8582H125.238Z" fill="white"/>
<path id="Vector_10" d="M72.8409 28.5506H80.341L80.5407 29.3494C80.7552 30.1852 81.4801 30.6956 82.3011 30.6068C83.0851 30.5255 83.6398 29.9116 83.7952 29.0314V13.6318H91.3766V29.3642C91.2065 32.9811 89.2686 36.0951 85.7553 37.2489C83.381 38.0256 80.8588 38.0477 78.4105 37.2415C74.9046 36.0877 72.7522 32.1823 72.8409 28.558" fill="white"/>
</g>
<path id="Vector_11" d="M24.5121 0C10.9764 0 0 10.9764 0 24.5121C0 38.0477 10.9764 49.0241 24.5121 49.0241C38.0477 49.0241 49.0241 38.0477 49.0241 24.5121C49.0241 10.9764 38.0551 0 24.5121 0ZM40.8732 15.2442C40.8732 17.3744 38.7947 17.3522 38.7947 17.3522L32.271 17.3818L32.3302 29.2902C32.3154 35.8583 26.805 40.9545 20.4662 41.0507C13.9794 41.1468 8.26191 36.1098 8.20274 29.4899L8.16576 24.8893C8.16576 24.2828 8.57996 23.8316 9.03855 23.802C9.59329 23.765 10.0667 24.2236 10.0741 24.8227L10.1036 29.4086C10.1406 35.0003 15.0223 39.2533 20.481 39.1424C25.9618 39.024 30.4663 34.5713 30.4663 28.95V15.3034H38.8095V12.367H30.4737H27.7148V28.95C27.7 33.0698 24.4233 36.2651 20.4662 36.3761C16.5238 36.4796 12.9291 33.4101 12.8921 29.3198L12.8478 24.8153C12.8478 24.3345 13.2915 23.839 13.7649 23.839H18.1954C18.6836 23.839 19.12 24.3272 19.12 24.8079V28.9648C19.12 29.6083 19.7043 30.1186 20.2887 30.1038C20.836 30.089 21.4425 29.6157 21.4425 28.9352V11.2205C21.4499 10.7545 22.0712 10.3847 22.4188 10.4069C22.7813 10.4291 23.3508 10.8433 23.3508 11.3019V28.9278C23.3508 30.7103 21.9011 32.0195 20.3034 32.0195C18.5061 32.0195 17.1895 30.6068 17.1969 28.7799L17.2117 25.7399H14.7708L14.8004 29.3272C14.83 32.3524 17.5815 34.5713 20.4662 34.4604C23.3804 34.3494 25.7917 32.0121 25.7917 28.9426V11.4276C25.7917 10.9025 26.1985 10.4217 26.694 10.4217H31.3095H39.5714C39.5714 10.4217 40.8806 10.4291 40.8806 11.9306V15.2516L40.8732 15.2442Z" fill="white"/>
</g>
</g>
</g>
</g>
</g>
</g>
</g>
</g>
</g>
<defs>
<clipPath id="clip0_683_1322">
<rect width="314.5" height="49.0315" fill="white"/>
</clipPath>
</defs>
</svg>
