<svg width="322" height="51" viewBox="0 0 322 51" fill="none" xmlns="http://www.w3.org/2000/svg">
<rect width="322" height="51" fill="#F5F5F5"/>
<g id="Jugogradnja Website Redesign Home">
<rect width="1919" height="4950" transform="translate(-223.5 -14.9386)" fill="white"/>
<g id="Header">
<rect width="1919" height="80" transform="translate(-223.5 -14.9386)" fill="white"/>
<g id="Jugogradnja Logo Horisontal 1" clip-path="url(#clip0_683_1322)">
<g id="Layer 1">
<g id="Group">
<g id="Group_2">
<path id="Vector" d="M295.603 29.7153C295.543 33.3144 293.562 36.3086 290.25 37.5789C289.161 37.9494 288.027 38.267 286.832 38.267H276.05V27.8553H269.51L269.494 38.2745L261.744 38.2594V13.9352H269.494V20.8763H276.042L276.058 13.9352H283.8L283.808 20.8763C285.547 20.8839 287.135 20.8158 288.738 21.141C292.919 21.9878 295.671 25.413 295.603 29.7229V29.7153ZM285.955 31.2351C286.953 31.1444 287.49 30.2522 287.429 29.4355C287.369 28.6416 286.688 27.9006 285.766 27.8779L283.808 27.8326V31.288C284.549 31.288 285.222 31.288 285.955 31.2275V31.2351Z" fill="#253D86"/>
<path id="Vector_2" d="M251.673 34.8418H241.102L241.095 38.3426H233.314V30.9251L235.507 30.9024L238.985 13.9352H256.784V30.8873L259.431 30.9251V38.335H251.695L251.673 34.8342V34.8418ZM249.034 27.7418V21.33L244.785 21.3224L243.628 27.7494H249.026L249.034 27.7418Z" fill="#253D86"/>
<path id="Vector_3" d="M158.86 16.0296C163.396 19.3339 165.067 25.103 163.245 30.3278C161.499 35.3181 156.652 38.6601 151.208 38.6677C145.703 38.6677 140.804 35.2728 139.087 30.169C137.295 24.8535 139.155 19.0012 143.828 15.8104C148.327 12.7405 154.384 12.7708 158.86 16.0296ZM151.283 31.2729C154.202 31.2124 156.244 28.6719 156.198 26.0028C156.145 23.3186 153.998 20.9368 151.193 20.9368C148.342 20.9368 146.172 23.4093 146.195 26.1389C146.217 28.8307 148.357 31.3258 151.283 31.2653V31.2729Z" fill="#253D86"/>
<path id="Vector_4" d="M221.927 34.0478H215.394L214.215 38.2745L205.883 38.2594L213.996 13.9352H223.311L231.432 38.2518L223.092 38.2745L221.935 34.0478H221.927ZM220.15 27.6738L218.661 22.1844L217.149 27.7343C218.298 27.7494 219.183 27.7645 220.15 27.6738Z" fill="#253D86"/>
<path id="Vector_5" d="M312.003 34.0554L305.463 34.0327L304.276 38.2745L295.936 38.2594L304.064 13.9276H313.372L321.5 38.2518L313.168 38.2821L312.003 34.0554ZM310.234 27.8023L308.722 22.1693L307.209 27.7948H310.234V27.8023Z" fill="#253D86"/>
<path id="Vector_6" d="M206.608 25.8667C205.391 29.6775 201.845 31.6434 197.958 31.7039H194.511L194.503 38.267H186.753V13.9276H197.8C199.493 13.9352 201.043 14.3284 202.533 15.024C206.563 17.0428 207.909 21.7988 206.608 25.8667ZM197.331 24.6796C198.51 24.5964 199.009 23.5227 198.911 22.57C198.813 21.5946 198.004 20.9217 196.93 20.9217H194.511V24.725C195.456 24.725 196.355 24.7476 197.331 24.6796Z" fill="#253D86"/>
<path id="Vector_7" d="M110.083 32.8305C108.623 35.9457 106.378 38.2443 102.832 38.5921C100.004 38.8719 97.2817 38.2594 94.9 36.6716L94.9302 29.5716L98.4386 31.1368C100.042 31.4619 101.652 31.3561 102.847 30.169L94.9151 13.9503L103.263 13.9352L106.93 22.5549L110.597 13.9428H118.944L110.083 32.8456V32.8305Z" fill="#253D86"/>
<path id="Vector_8" d="M174.791 21.3224L174.784 38.2745L167.033 38.267V13.9352H184.469V21.3149L174.791 21.3224Z" fill="#253D86"/>
<path id="Vector_9" d="M128.025 21.3224L128.018 38.267L120.268 38.2745V13.9352H137.673L137.666 21.3224H128.025Z" fill="#253D86"/>
<path id="Vector_10" d="M74.4622 29.186H82.1292L82.3334 30.0026C82.5526 30.857 83.2936 31.3788 84.1329 31.288C84.9344 31.2049 85.5015 30.5773 85.6603 29.6775V13.9352H93.4104V30.0178C93.2365 33.7152 91.2555 36.8984 87.664 38.0779C85.2368 38.8719 82.6585 38.8945 80.1557 38.0704C76.5718 36.8908 74.3715 32.8986 74.4622 29.1936" fill="#253D86"/>
</g>
<g id="Group_3">
<path id="Vector_11" d="M25.0576 50.1153C38.8966 50.1153 50.1153 38.8966 50.1153 25.0576C50.1153 11.2187 38.8966 0 25.0576 0C11.2187 0 0 11.2187 0 25.0576C0 38.8966 11.2187 50.1153 25.0576 50.1153Z" fill="#253D86"/>
<g id="ATUmBn">
<path id="Vector_12" d="M39.6582 17.7385L32.9893 17.7687L33.0498 29.9421C33.0346 36.6564 27.4016 41.8661 20.9217 41.9644C14.2906 42.0627 8.4458 36.9135 8.38531 30.1463L8.3475 25.4433C8.3475 24.8232 8.77093 24.362 9.23972 24.3318C9.80681 24.294 10.2907 24.7628 10.2983 25.3752L10.3285 30.0631C10.3663 35.7793 15.3567 40.127 20.9368 40.0136C26.5396 39.8926 31.1444 35.3408 31.1444 29.5943V15.644H39.6733V12.6422H31.1519H28.3316V29.5943C28.3241 33.8059 24.9669 37.0723 20.9217 37.1857C16.8916 37.2916 13.2169 34.1537 13.1791 29.9724L13.1337 25.3677C13.1337 24.8762 13.5874 24.3696 14.0713 24.3696H18.6004C19.0995 24.3696 19.5456 24.8686 19.5456 25.3601V29.6095C19.5456 30.2673 20.1429 30.789 20.7402 30.7739C21.2997 30.7587 21.9198 30.2748 21.9198 29.5792V11.4703C21.9273 10.9939 22.5625 10.6159 22.9178 10.6385C23.2732 10.6612 23.8705 11.0846 23.8705 11.5534V29.5716C23.8705 31.3939 22.3886 32.7322 20.7553 32.7322C18.918 32.7322 17.5721 31.288 17.5797 29.4204L17.5948 26.3128H15.0996L15.1299 29.98C15.1601 33.0725 17.9728 35.3408 20.9217 35.2274C23.9008 35.114 26.3657 32.7246 26.3657 29.5868V11.682C26.3657 11.1451 26.7816 10.6537 27.2882 10.6537H32.0063H40.4521C40.4521 10.6537 41.7905 10.6612 41.7905 12.1961V15.5911C41.7905 17.7687 39.6658 17.746 39.6658 17.746L39.6582 17.7385Z" fill="white"/>
</g>
</g>
</g>
</g>
</g>
</g>
</g>
<defs>
<clipPath id="clip0_683_1322">
<rect width="321.5" height="50.1228" fill="white"/>
</clipPath>
</defs>
</svg>
